# xmcd
#
# Track frame offsets: 
#        150
#        17758
#        33632
#        50288
#        73812
#        94734
#        110642
#        142571
#        155035
#        173606
#        186841
#
# Disc length: 2700 seconds
#
# Revision: 0
# Processed by: cddbd v1.5.2PL0 Copyright (c) Steve Scherf et al.
# Submitted via: ExactAudioCopy v0.99pb3
#
DISCID=8f0a8a0b
DTITLE=Steve Strongman - Honey
DYEAR=2006
DGENRE=Blues
TTITLE0=Hard Headed Lover
TTITLE1=Let's Sleep on This
TTITLE2=Honey
TTITLE3=Big Legged Woman
TTITLE4=Soul Searching
TTITLE5=That's Me
TTITLE6=How Blue Can You Get
TTITLE7=River
TTITLE8=Silhouette
TTITLE9=The Birthday Song
TTITLE10=Keep It to Yourself
EXTD=
EXTT0=
EXTT1=
EXTT2=
EXTT3=
EXTT4=
EXTT5=
EXTT6=
EXTT7=
EXTT8=
EXTT9=
EXTT10=
PLAYORDER=
